<svg xmlns="http://www.w3.org/2000/svg" width="16.297" height="16.327" viewBox="0 0 16.297 16.327">
  <path id="call" d="M12.936,4.52A3.775,3.775,0,0,1,15.918,7.5m-2.982-6a6.8,6.8,0,0,1,6,5.994m-.755,6.025v2.265a1.51,1.51,0,0,1-1.646,1.51,14.941,14.941,0,0,1-6.515-2.318,14.722,14.722,0,0,1-4.53-4.53A14.941,14.941,0,0,1,3.174,3.9a1.51,1.51,0,0,1,1.5-1.646H6.941a1.51,1.51,0,0,1,1.51,1.3A9.694,9.694,0,0,0,8.98,5.675a1.51,1.51,0,0,1-.34,1.593l-.959.959a12.079,12.079,0,0,0,4.53,4.53l.959-.959a1.51,1.51,0,0,1,1.593-.34,9.694,9.694,0,0,0,2.121.528A1.51,1.51,0,0,1,18.183,13.519Z" transform="translate(-2.917 -1.224)" fill="none" stroke="#fff" stroke-linecap="round" stroke-linejoin="round" stroke-width="0.5"/>
</svg>
