<svg id="Capa_1" data-name="Capa 1" xmlns="http://www.w3.org/2000/svg" viewBox="0 0 592.76 425.2"><defs><style>.cls-1{fill:#f7941d;}.cls-1,.cls-13,.cls-2,.cls-4{opacity:0.5;}.cls-12,.cls-2,.cls-3{fill:#fff;}.cls-3{opacity:0.2;}.cls-4{fill:#a97c50;}.cls-13,.cls-5{fill:#9e7755;}.cls-11,.cls-6,.cls-9{fill:none;stroke-miterlimit:10;}.cls-11,.cls-6{stroke:#9e7755;}.cls-7{fill:#2b1c0b;}.cls-8{fill:#5f4222;}.cls-9{stroke:#2b1c0b;stroke-width:0.75px;}.cls-10{fill:#3d2810;}.cls-11{stroke-width:1px;}.cls-14{fill:#180d10;}.cls-15{fill:#f79e8c;}.cls-16{fill:#442e2c;}.cls-17{fill:#bcbec0;}.cls-18{fill:#e5846f;}.cls-19{fill:#d98426;}.cls-20{fill:#faaa44;}.cls-21{fill:#d1d3d4;}.cls-22{fill:#a7a9ac;}.cls-23{fill:#f47524;}.cls-24{fill:#e6e7e8;}.cls-25{fill:#374fa1;opacity:0.76;}</style></defs><rect class="cls-1" width="592.76" height="425.2"/><path class="cls-2" d="M592.76,222.24s-33.08,4.65-42.08-10.08,33.5-23.23-60-24.73-68.5-24.5-72.5-30-14-5.19-54.5-5.6-42.5.6-53-6.9-35-4.5-35-4.5,6-6.69,47-.6,31,2.1,65,1.1,61-1,62,13.5,31,14.58,63.5,16,53,.46,59.5,6,20.08,3.67,20.08,3.67Z"/><path class="cls-3" d="M212.35,154.6c-32.46-2.59-24.1-3.88-49.94-10.66s-46.51-11.56-49.84-.64-26.31,5.68-51.44,1-40.65-9-46.59-6C10,140.72,3,139,0,138.13v34.38c8,1.82,19.28,3,25.05-2.89,9.5-9.69-21.53-23.71,50.3-8.32s56.76-6.63,60.8-10.13,11.63-1.49,42.7,5.36,32.42,8,41.78,4.09,27.59,2.75,27.59,2.75S244.81,157.19,212.35,154.6Z"/><polygon class="cls-4" points="101.47 168.22 101.51 167.82 101.68 167.82 101.47 168.22"/><polygon class="cls-4" points="122.43 128.12 122.35 128.26 122.35 128.12 122.43 128.12"/><path class="cls-4" d="M566.37,357.79c-.52-.18-1-.38-1.53-.57h24.67v-1h-2.87V345.12H582v-.19h-1.2v-.88h-.52v-1.94H580v-2.79h-.69v-5.61h.5v-.65h-.5v-1.85h.5v-.65h-.5V289l.58.52,1.75-.68c.17-22.16-18.53-36.79-18.53-36.79l-4.25,16.3-70.13,32.64,1.12,2.58.58,1.45a1.84,1.84,0,0,0-.09.53,1.72,1.72,0,0,0,.51,1.22l-1.5-.37-.73,3.11,2.11.5-5.11,7.67-.42-1.29-5.83,2.07.15.45c-41.83-18.55-83.06-36.45-99.58-42.43-38.67-14-92,42.66-110,46.66s-56-32-71.34-34c-13.15-1.71-37.09,15.2-57.52,19.63l-2.42-33h15.05V265H137.91l-1.64-22.45h11V231.84H135.48l-1-13.51v-5.07h8V202.53h-9.2l-2.12-29h6.22V163.29h-7l-2.57-35.17h.34V117.39H123V117h-.62l-5.19-5.39h0V109h-1.57V89h-.8v20h-1.55v2.57h.3L108.37,117h-.9v.4h-5.23v10.73h.28l-3.83,35.17H93v10.27h4.55l-3.16,29H87.93v10.73h5.32l-2,18.58H83.15v10.73h6.91L87.62,265H73.48v9.22c-15.31-12-29.57-23.15-38.17-26.48C14.64,239.76,0,268.43,0,268.43V383.09l592.76-13.33S582.48,365.08,566.37,357.79Zm16-5.63h.19V350h-.19V345.8H586v6.58h-3.63Zm0,.91H586v3.14h-3.63Zm-1-6.72h.51V350h-.51Zm-.62,5.81h1.13v.22h-1.13Zm-.52,2.11h.52v-1.2h1.13v3.14h-1.65ZM85.59,283.65c-3.4-2.61-6.81-5.27-10.18-7.9h11ZM87,270.45H74v-.9H87.12Zm.14-1.3H74v-3.64h13.6Zm18.29-147.63,2.74-2.83-.72,2.83Zm1.92.4L107.1,123H104l1.08-1.12Zm-4.86-4.25h5v.12h.11l-3.6,3.73h-1.46Zm0,5.36v-1.11h1.07ZM102,163.69h1.88l-2,3.73h-.33Zm7.12,4.13v.93h-4.16l.48-.93Zm-3.48-.4,1.92-3.73h1.56v3.73Zm3,6.14v1.52h-4.5l-1.31-1.51h5.81Zm-2.16,33.1v-.44h2.16v.44Zm2.16.4v1h-2.16v-1Zm-2.16-1.34v-2.56h2.16v2.56Zm-3.65-3.19v-2.44h5.81v2.44Zm0,4.13v-.44h3.13v.44Zm3.13.4v1h-3.13v-1Zm-3.13-1.34v-2.56h3.13v2.56Zm0-6.13V197h5.81v2.56Zm0-3.06V194h5.81v2.57Zm0-3.07V190.9h5.81v2.56Zm0-3.06v-2.56h5.81v2.56Zm0-3.07v-2.56h5.81v2.56Zm0-3.06V181.7h4l1.82,2.07v.5Zm1.28-5.63,2.27,2.57h-3.55v-2.57Zm-1.28-.5v-1l.84,1Zm4.41.5h1.4v1.61Zm-.44-.5-2.23-2.56h4.07v2.56Zm-6-3.24,1.5,1.7v25.93H97.73Zm-7.23-11.21h5.14l-.4,3.73H93.51Zm0,5.06v-.93H98.2l-.1.93Zm4.17,34.18h4.56v3.73h-5Zm-.45,4.13h5v1H97.12Zm-2.75,25.22h5.67l-5,3.69H94.08Zm6.16,36.87v-3.64h13v3.64Zm13,.4v.9h-13v-.9ZM97.16,237.33l1.31-1h5.78v1ZM94,236.89l0-.51h.63Zm.75,7.17,3.18,2.15h-3.6v-2.15Zm-.42,25.68h5.57v.71H94.31Zm0-.59v-2h5.57v2Zm0-2.4v-1.24h5.57v1.24Zm0-1.73v-.42h5.82V265Zm0-.84V262h5.82v2.14Zm0-2.56v-2.15h5.82v2.15Zm0-2.57V256.9h5.82v2.15Zm0-2.57v-2.15h5.82v2.15Zm0-2.57v-2.15h5.82v2.15Zm0-2.56V249.2h5.82v2.15Zm0-2.57v-2.15h4.22l1.6,1.08v1.07Zm4.76-4.72h1.06v.75Zm-.59-.42L97,242.57h3.15v1.07ZM99,236l5-3.69h.19V236Zm-10.68-33h6L94,206.66H88.34Zm0,5.12v-1h5.59l-.11,1Zm5,35,.5.34V265H90.91Zm-2.84,26.06.39-3.64h3v3.64Zm3.34.4v.9H90.31l.1-.9ZM83.59,232.28h7.59l-.4,3.69H83.59Zm0,5.05v-1h7.15l-.11,1Zm30.82,66.24c-2.56-1.44-5.23-3.09-8-4.9l8-5.82Zm0-13.38-9.7,7.35c-5.17-3.46-10.6-7.43-16.09-11.58l1.12-10.21h24.67Zm0-25.17H100.64v-17l13.77,9.31Zm0-10.07-13.77-9.78v-2.6h13.77Zm0-17.62h-9.55v-1h9.55Zm0-1.36h-9.55v-3.69h9.55Zm0-4.13h-9.75l9.75-7.14Zm0-10.2-13.67,10.2H94.53l2-18.58h17.85Zm0-13.59h-5.33v-1h5.33Zm0-1.39h-5.33v-3.73h5.33Zm0-4.13h-5.33V184.35l3.15,3.56v1.57a3,3,0,0,0,2.18,2.86Zm0-27.23a2.33,2.33,0,0,0-1.54,2.2v3.8a3,3,0,0,0-.64,1.83v1.32l-3.15-3.61v-7.28h5.33Zm0-6.55H109.6v-.93h4.81Zm0-1.33H109.6v-3.73h4.81Zm0-4.13h-6.69l6.69-13Zm0-19.83-10.36,19.83h-2l3.84-35.17h8.56Zm.42-20.42h-7l.27-1.12h6.75Zm0-1.52h-6.65l.91-3.73h5.74Zm0-4.53h-5l5-5.14Zm32,120.34h-11l-.07-1h11.06Zm0-5.05V236H135.78l-.27-3.69Zm-12.23,36.87h-.24l-5.12-3.64h5.1Zm-2.81,0h-3.66v-2.48Zm10.29-61.1h-8.38l-.08-1h8.46Zm0-5.12v3.73h-8.49l-.27-3.73ZM134.34,265h-5.75L116,256.1V242.57h16.72Zm-6.69,11.86v-1.13h5.79L132,276.88Zm3.58.54-3.58,2.72v-2.72Zm-5.5-12.4H116v-6.56Zm-1.12-62.09v3.73H116v-3.73Zm-8.59-.4V192.34l.09,0,9,10.22Zm8.59,4.53v1H116v-1Zm1,6.2L116,220.43v-7.17Zm3.48-6.2.87,1h-4.86v-1Zm-4-.4v-3.73h.35l3.29,3.73Zm3,11.63v-1.84h2.71l.13,1.84Zm2.87.36.13,1.84h-3v-1.84Zm-2.87-2.56v-1.47l.51-.37h2l.14,1.84Zm-.51-1.09v16.84H116v-8.33Zm-.79,21v-3.69h.79V236Zm.79.41v1h-.79v-1Zm-1.4-4.1V236H116v-3.69Zm0,4.1v1H116v-1Zm6.11,1h-4.2v-1h4.13Zm-.1-1.45h-4.1V234h4Zm-.16-2.2h-3.94v-1.4H132Zm-.15-2.2h-3.79v-1.84h3.65Zm-.16-2.2h-3.63v-1.84h3.5Zm-.16-2.19h-3.47v-1.85h3.34Zm-.16-2.21h-3.31V223h3.18Zm-.15-2.19h-3.16v-1.84h3ZM137,168.75h-6.1l-.06-.93H137Zm0-5.06v3.73h-6.19l-.28-3.73Zm-6.31,49.57.05.63h-1.53l.86-.63Zm-.59-8.33-1.74-2h1.6Zm-.17-2.4H128l-10.13-11.64a2.94,2.94,0,0,0,.38-1.41v-6.35a3,3,0,0,0-.64-1.83v-3.8a2.34,2.34,0,0,0-1.55-2.2v-1.74h11.79ZM119.66,140l1.59-3.09h.59V140Zm2.18.6v3.09h-4.07l1.58-3.09Zm-.28-4.29.28-.55v.55Zm.12-6.78-1.62,3.09h-4v-3.09ZM116,129v-.83h5.82V129Zm3.73,4.3-1.62,3.09H116v-3.09Zm-1.93,3.69L116.2,140H116v-3.09Zm-.36,7.39h4.38v3.09H116v-.3Zm4.38,3.69v3.09H116V148Zm0,3.69v3.09H116v-3.09Zm0,3.69v3.09H116V155.4Zm0,3.69v3.1H116v-3.1Zm0,3.7v.5H116v-.5Zm-4.9,4.63v-.94h4.9v.94Zm4.9.4v.93h-4.9v-.93Zm-4.9-1.94v-2.19h4.9v2.19Zm-.52-2.19v2.19H116v-2.19Zm0,2.79v.94H116v-.94Zm0,1.34v.93H116v-.93Zm8.29-37.62,2.36,33.09h-4.72v-28.5Zm-1.24-8.28h2.25L126.8,123h-3Zm.81,45.5v-3.73h2.82l.27,3.73Zm3.12.4.06.93h-3.18v-.93Zm-3.64-4.13v3.73h-1.41v-3.73Zm0,4.13v.93h-1.41v-.93Zm4.18-45.08-.79-.82h.79Zm0-5.07v3.85h-1.18l-3.71-3.85Zm-2.61,3.85h-2l-.7-2.74Zm-9.7-9.92h.08l5.23,5.39h-5.31Zm0,6.19h6.09l.06.07.89,3.66h-7Zm0,4.13h7.14L123,123h-7.41Zm11.5,187.19A50.79,50.79,0,0,1,116,304.46V291.67l11.11-8.12Zm0-28.58L116,289V275.75h11.11Zm.29-10.08H116v-.9h11.4Zm0-1.3H116v-3.64h10.43l1,.65Zm6,40.6c-.72,0-1.44,0-2.15,0a18.52,18.52,0,0,1-3.66-.52v-1.87h5.81Zm0-2.92h-5.81V304h5.81Zm0-3.33h-5.81v-2.79h5.81Zm0-3.33h-5.81v-2.78h5.81Zm0-3.33h-5.81v-2.78h5.81Zm0-3.32h-5.81v-2.79h5.81Zm0-3.33h-5.81v-2.78h5.81Zm0-3.33h-5.81v-2.78h5.81Zm0-3.32h-5.81v-.36l3.32-2.43h2.49Zm0-3.33h-1.75l1.75-1.28Zm-5.29-9.76v-.9h4.26l1.34.9ZM134,309.72V278.55l1.26-.92,2.27,31.75C136.31,309.55,135.14,309.66,134,309.72Zm4-44.21h15.32v3.64H138.22Zm.3,4h15v.9h-15Zm390.13,71.26h1.22v.45h-.12Zm1.51.45v-.45H530v.45Zm-6-3.74v-3.41H530v1.29l-5.13,2.12Zm.13.34-.13.06v-.06Zm5.54-34.05.42-.53v.53Zm.42.35v3.4h-3.36l2.68-3.4Zm-2.07-.35h-4v-.36l.53-3H530v.77Zm-.27.35-2.68,3.4h-1.07v-3.4Zm-2.95,3.74-.8,1v-1Zm1.66,0H530v3.4h-6.09V311Zm3.63,3.74v1.56h-6.09v-1.56Zm0,2.83v.58h-6.09v-.58Zm0,.92v3.4h-3.13l-3-2.51v-.89Zm0,3.74v2.34l-2.73-2.34Zm-5.14-.34h-1V318Zm.4.34,4,3.41h-5.35v-3.41Zm4.4,3.75.34.29v3.11h-6.09v-3.4Zm.34,3.74V330h-6.09v-3.41Zm0,5.06v2.09h-6.09v-2.09Zm0,5.12v.72h-1.73Zm0-36.73h-5.5l.19-1.09H530Zm-6.38-5.46v-2.37h.93Zm3.83,43.25H530v2.43h-2.86c-.92-.38-1.84-.78-2.75-1.17Zm-4.12-30.3v2.11l-.64.8.64-3.66Zm0,4.21v1.43H522.2v0Zm0,2.7v1.31L522,314.62l0-.15Zm0,3v12.88h-4.1l2.48-14.26Zm0,14.19v6.48l-.63.25c-1.51-.64-3-1.31-4.52-2l.83-4.75Zm18.94,9.13h1.87v6.93l-.66-.29Zm5.5,8.57-3.34-1.5v-7.07h3.34Zm-7.66-3.79v.34l-2.94-1.32v-3.8h2.47l.86,4.93Zm-3.23-1.12-2.22-1,.09-.07-1.21-.49v-2.11h3.34Zm32.91,11.74h-3.64v-3.14h3.64Zm0-3.83h-3.64V345.8h3.64Zm4.05,3.83h-3.6v-3.14h3.6Zm0-8.77H573v-.36h-.51v-.73h-.39v1.28h-.44v.95h.44V350h.39v-.76H573v-.39h.79v3.58h-3.6V345.8h3.6Zm3.79,8.77h-3.34v-3.14H577v1.2h.58Zm-1.26-9.86v.73h-1v.43h-.77v-.43h-.34V345.8h1.5v.55Zm-1.74,2.84v-.39h.77v.27h1V350h-1v2.21H577v.22h-2.76v-3.19Zm-1.49-78.6,1-.07s4.2,7.82,4.22,11.93l-.06.3-1.56,1.44-6.87-6.28.24-2.52,2.85-4.75Zm-3.63-7.1a15.17,15.17,0,0,1,3,4.56L570,270.3l-2.93-5.8A3.16,3.16,0,0,1,569.49,263.49Zm-5.36-5,1.21,0,2.47,2.66-.09.51-3.36,1.66L563.17,262Zm-31.61,30.82.28-.22.59-1.65,1.83-.56,0-.77,27.07-12.64,16.17,14.68v42.45h-.61v.65h.61v1.85h-.61v.65h.61v5.61h-.24v2.79h-.37v1.94H577v.88h-1.26v.19H565.68v11.09h-3.27c-1.79-.8-3.55-1.68-5.29-2.6l-1.54-.7h.24l-.92-.5h-.43l-2.16-1V351l-.47-.25v.47l-3.8-1.71v-8.7h.3v-.52h-6.19L534.6,299h3.07v-7.06h-5.23l-.67-2.05Zm4.79,6v3.44h-2.77l-.45-2.51v-.93Zm-3.22-.32v-2.66h3.22v2.66Zm-.23-2.66v2.66h-.44l-.87-2.66Zm-3.29,5.51h1.57l.1.56-.28.35h-1.39Zm0,1.23h1.14l-1.14,1.45Zm0,3.56,2-2.5,2.28,13.16h-4.25Zm0,11.93H535l2.31,13.27L530.57,322Zm0,9.2,7.13,6.07.11.63h-7.24Zm0,8H538l.07.36-7.53,3.11Zm0,4.88,7.75-3.2,1.21,6.93h-9Zm2.66,4.25v2l-.48-.19h0l-.49-.22-1.67-.69v-.9ZM530,298.66h-5.26l.16-.91H530ZM524.75,291l.28,0-.37.95h-2Zm-4.65,2.17,1.88-.88h1.39v2.66H520.1Zm0,2.1h2.95v.31l-.58,3.13H520.1Zm-33.83,22.41,5-7.51,2.31.5.68-3.08-1.72-.41a1.75,1.75,0,0,0,1-.8l2.26-1.87,23.91-11.17V299h2.67l-6.64,36.36c-1.18-.54-2.37-1.08-3.55-1.65a2.3,2.3,0,0,1-.79-.62c-7.09-3.18-14.37-6.43-21.68-9.68l6.82-2.26v-.73A15.72,15.72,0,0,0,486.27,317.63Z"/><rect class="cls-5" x="338.75" y="306.95" width="150" height="52.02"/><line class="cls-6" x1="399.88" y1="101.01" x2="493.63" y2="357.03"/><rect class="cls-5" x="410.86" y="219.25" width="67.99" height="136.75"/><polygon class="cls-5" points="346.25 172.75 299.58 172.75 299.58 254.81 213.52 254.81 213.52 357.82 318.3 357.82 318.3 357.33 346.25 357.33 346.25 172.75"/><path class="cls-5" d="M3.55,217.32c.52-4.13,4.14-7.31,8.93-8.41a7.9,7.9,0,0,1-2.23-6.32c.62-4.93,6.35-8.26,12.8-7.45s11.18,5.46,10.56,10.38a7.07,7.07,0,0,1-.74,2.36c4.91,2.37,8,6.74,7.43,11.29-.53,4.18-4,7.44-8.7,8.79,3,1.63,4.8,4.39,4.44,7.27a6.82,6.82,0,0,1-3.76,5,7.49,7.49,0,0,1-1.35,11.95,8,8,0,0,1,2.18,6.34,7.34,7.34,0,0,1-1.3,3.31c3.81,1.81,6.21,5.18,5.77,8.7-.53,4.22-4.95,7.21-10.29,7.27a2.91,2.91,0,0,1,0,.51A5,5,0,0,1,26,281a6.59,6.59,0,0,1,.49,3.37A6.71,6.71,0,0,1,25,287.75c2.44,1.11,4,3.25,3.72,5.48a4.36,4.36,0,0,1-.22.88,4.33,4.33,0,0,1-1.05,7.65,3.47,3.47,0,0,1,.05,1.16,4,4,0,0,1-1.5,2.56,2.39,2.39,0,0,1,.92,2.07c-.18,1.4-1.8,2.34-3.63,2.11s-3.16-1.54-3-2.94v0c-3.07-.6-5.25-2.89-4.94-5.31a4.17,4.17,0,0,1,2.12-3,3.84,3.84,0,0,1-.21-1.81,1.84,1.84,0,0,1,.05-.25,5.2,5.2,0,0,1-2.58-4.85c0-.09,0-.18.05-.28h0c-5.88-.74-10.2-5-9.63-9.48.39-3.12,3-5.54,6.56-6.48a6.39,6.39,0,0,1,4.09-3.52,7,7,0,0,1-.69-3.95,6.87,6.87,0,0,1,.91-2.63c-4.44-1.84-7.31-5.62-6.81-9.57a8.15,8.15,0,0,1,4-5.8,7.8,7.8,0,0,1-2-6c.39-3.14,2.87-5.63,6.29-6.82a6.15,6.15,0,0,1-1-4.15A6.07,6.07,0,0,1,18,229.57a20.08,20.08,0,0,1-2.17-.14C8.34,228.48,2.83,223.07,3.55,217.32Z"/><path class="cls-7" d="M467.51,357.52,470.87,48a36.61,36.61,0,0,1,16.32,0l6.28,309.49Z"/><rect class="cls-7" x="502.22" y="245.46" width="1.31" height="113.84"/><rect class="cls-8" x="503.1" y="245.46" width="0.44" height="113.84"/><rect class="cls-7" x="487.24" y="253.36" width="15.64" height="0.76"/><rect class="cls-7" x="487.24" y="245.46" width="15.64" height="0.76"/><rect class="cls-7" x="487.24" y="261.76" width="15.64" height="0.76"/><rect class="cls-7" x="487.24" y="270.16" width="15.64" height="0.76"/><rect class="cls-7" x="487.24" y="278.56" width="15.64" height="0.76"/><rect class="cls-7" x="487.24" y="286.96" width="15.64" height="0.76"/><rect class="cls-7" x="487.24" y="295.36" width="15.64" height="0.76"/><rect class="cls-7" x="487.24" y="303.77" width="15.64" height="0.76"/><rect class="cls-7" x="487.24" y="312.17" width="15.64" height="0.76"/><rect class="cls-7" x="487.24" y="320.57" width="15.64" height="0.76"/><rect class="cls-7" x="487.24" y="328.97" width="15.64" height="0.76"/><rect class="cls-7" x="487.24" y="337.37" width="15.64" height="0.76"/><rect class="cls-7" x="487.24" y="345.77" width="15.64" height="0.76"/><rect class="cls-7" x="487.24" y="354.17" width="15.64" height="0.76"/><line class="cls-9" x1="476.8" y1="56.56" x2="374.35" y2="357.52"/><line class="cls-9" x1="486.39" y1="56.56" x2="588.84" y2="357.52"/><rect class="cls-7" x="468.8" y="47.13" width="19.77" height="3.31"/><rect class="cls-7" x="484.9" y="17.29" width="0.66" height="30.7"/><rect class="cls-7" x="463.12" y="115.06" width="31.14" height="1"/><rect class="cls-7" x="463.12" y="109.34" width="31.14" height="1.01"/><rect class="cls-8" x="463.12" y="109.34" width="31.14" height="0.51"/><rect class="cls-7" x="463.12" y="98.55" width="0.65" height="16.81"/><rect class="cls-7" x="493.31" y="98.55" width="0.94" height="16.81"/><rect class="cls-7" x="463.12" y="98.55" width="31.14" height="1.01"/><rect class="cls-8" x="463.12" y="98.55" width="31.14" height="0.3"/><rect class="cls-7" x="469.18" y="99.05" width="0.67" height="16.3"/><rect class="cls-7" x="475.2" y="99.05" width="0.67" height="16.3"/><rect class="cls-8" x="475.54" y="99.56" width="0.34" height="15.46"/><rect class="cls-8" x="469.52" y="99.56" width="0.34" height="15.46"/><rect class="cls-8" x="463.44" y="99.56" width="0.34" height="15.46"/><rect class="cls-7" x="481.22" y="99.05" width="0.67" height="16.3"/><rect class="cls-8" x="481.56" y="99.56" width="0.34" height="15.46"/><rect class="cls-7" x="487.24" y="99.05" width="0.67" height="16.3"/><rect class="cls-8" x="487.58" y="99.56" width="0.34" height="15.46"/><rect class="cls-8" x="493.64" y="98.55" width="0.61" height="16.47"/><rect class="cls-7" x="463.78" y="193.79" width="31.14" height="0.52"/><rect class="cls-8" x="463.78" y="193.79" width="31.14" height="0.26"/><rect class="cls-7" x="463.78" y="188.25" width="0.65" height="8.63"/><rect class="cls-7" x="493.98" y="188.25" width="0.94" height="8.63"/><rect class="cls-7" x="463.78" y="196.45" width="31.14" height="0.52"/><rect class="cls-8" x="463.78" y="188.25" width="31.14" height="0.15"/><rect class="cls-7" x="469.85" y="188.51" width="0.67" height="8.37"/><rect class="cls-7" x="475.87" y="188.51" width="0.67" height="8.37"/><rect class="cls-8" x="476.2" y="188.77" width="0.34" height="7.94"/><rect class="cls-8" x="470.18" y="188.77" width="0.34" height="7.94"/><rect class="cls-8" x="464.1" y="188.77" width="0.34" height="7.94"/><rect class="cls-7" x="481.89" y="188.51" width="0.67" height="8.37"/><rect class="cls-8" x="482.22" y="188.77" width="0.34" height="7.94"/><rect class="cls-7" x="487.91" y="188.51" width="0.67" height="8.37"/><rect class="cls-8" x="488.24" y="188.77" width="0.34" height="7.94"/><rect class="cls-8" x="494.3" y="188.25" width="0.61" height="8.46"/><rect class="cls-7" y="357.33" width="592.76" height="67.87"/><path class="cls-10" d="M185.15,239.65c0,2.31-10.1,4.18-22.55,4.18s-22.54-1.87-22.54-4.18,10.1-4.19,22.54-4.19S185.15,237.33,185.15,239.65Z"/><rect class="cls-10" x="140.06" y="239.65" width="45.08" height="44.62"/><path class="cls-10" d="M176,263l-13.38-3.11h0L149.22,263c-27.29,63.56-44.7,94.35-44.7,94.35H220.69S201,321.88,176,263Z"/><path class="cls-10" d="M185.15,250s-.7,32.5,12.31,61l-7.54,4s-16-30.89-16-32.5S185.15,250,185.15,250Z"/><path class="cls-10" d="M140,250s.7,32.5-12.32,61l7.55,4s16-30.89,16-32.5S140,250,140,250Z"/><rect class="cls-5" x="19.38" y="308.05" width="8" height="47.74"/><path class="cls-7" d="M115.88,216.47c0,2.76-12.08,5-27,5s-27-2.25-27-5,12.08-5,27-5S115.88,213.7,115.88,216.47Z"/><rect class="cls-7" x="61.92" y="216.47" width="53.96" height="53.41"/><path class="cls-7" d="M104.92,244.39l-16-3.72h0l-16,3.72c-32.66,76.09-53.5,112.94-53.5,112.94h139S134.82,314.9,104.92,244.39Z"/><path class="cls-7" d="M115.88,228.88s-.84,38.9,14.74,73l-9,4.76s-19.13-37-19.13-38.9S115.88,228.88,115.88,228.88Z"/><path class="cls-7" d="M61.87,228.88s.84,38.9-14.74,73l9,4.76s19.13-37,19.13-38.9S61.87,228.88,61.87,228.88Z"/><path class="cls-7" d="M197.46,357.64,199.21,123a7.74,7.74,0,0,1,8.49,0L211,357.64Z"/><path class="cls-5" d="M393.13,333.37l1.75-234.62a7.7,7.7,0,0,1,8.48,0l3.27,234.62Z"/><line class="cls-11" x1="399.88" y1="104.5" x2="291.4" y2="355.65"/><path class="cls-5" d="M351.19,321l1.47-196.66a6.48,6.48,0,0,1,7.11,0L362.51,321Z"/><path class="cls-7" d="M215.39,357.64l1.38-183.9a6.06,6.06,0,0,1,6.65,0L226,357.64Z"/><rect class="cls-7" x="246.27" y="260.43" width="49.78" height="4.38"/><rect class="cls-7" x="250.92" y="224.23" width="40.48" height="4.38"/><polygon class="cls-7" points="250.48 357.52 247.14 357.52 259.93 183.05 262.92 183.49 250.48 357.52"/><polygon class="cls-7" points="298.28 357.27 301.26 357.27 282.38 183.87 279.4 184.29 298.28 357.27"/><path class="cls-7" d="M291,219.62v4.67H251.36v-4.67H291m.43-.37H250.92v5.41H291.4v-5.41Z"/><path class="cls-7" d="M295.68,255.4v4.67h-49V255.4h49m.37-.37H246.27v5.4h49.78V255Z"/><polygon class="cls-7" points="281.04 225.16 260.24 184.63 262.62 183.4 284.44 225.16 281.04 225.16"/><polygon class="cls-7" points="289.87 288.4 255.53 263.24 257.91 262.01 293.27 288.4 289.87 288.4"/><polygon class="cls-7" points="253.6 317.41 293.27 290.59 290.88 289.35 251.75 317.14 253.6 317.41"/><polygon class="cls-7" points="298.56 356.85 250.1 321.45 252.49 320.22 300.41 356.57 298.56 356.85"/><polygon class="cls-7" points="256.72 261.18 255.03 260.23 285.1 225.68 286.73 227.17 256.72 261.18"/><rect class="cls-7" x="251.36" y="223.02" width="39.61" height="0.37"/><rect class="cls-7" x="246.27" y="258.8" width="49.78" height="0.37"/><rect class="cls-7" x="262.14" y="255.03" width="0.47" height="5.4"/><rect class="cls-7" x="270.67" y="255.03" width="0.47" height="5.4"/><rect class="cls-7" x="279.21" y="255.03" width="0.47" height="5.4"/><rect class="cls-7" x="241.92" y="287.16" width="58.49" height="4.38"/><path class="cls-7" d="M300,282.16v4.6H242.32v-4.6H300m.4-.4H241.92v5.4h58.49v-5.4Z"/><rect class="cls-7" x="241.92" y="285.53" width="58.49" height="0.37"/><rect class="cls-7" x="260.56" y="281.76" width="0.55" height="5.4"/><rect class="cls-7" x="270.59" y="281.76" width="0.55" height="5.4"/><rect class="cls-7" x="259.32" y="182.8" width="23.69" height="4.38"/><path class="cls-7" d="M282.75,177.66v4.89H259.57v-4.89h23.18m.25-.26H259.32v5.4H283v-5.4Z"/><rect class="cls-7" x="259.32" y="181.17" width="23.69" height="0.37"/><rect class="cls-7" x="270.93" y="177.4" width="0.22" height="5.4"/><rect class="cls-7" x="280.62" y="281.76" width="0.55" height="5.4"/><rect class="cls-7" x="236.03" y="317.41" width="73.2" height="4.38"/><path class="cls-7" d="M308.78,312.45V317h-72.3v-4.51h72.3m.45-.44H236v5.4h73.2V312Z"/><rect class="cls-7" x="236.03" y="315.77" width="73.2" height="0.37"/><rect class="cls-7" x="259.36" y="312.01" width="0.69" height="5.4"/><rect class="cls-7" x="271.91" y="312.01" width="0.69" height="5.4"/><rect class="cls-7" x="284.46" y="312.01" width="0.69" height="5.4"/><rect class="cls-7" x="287.74" y="255.03" width="0.47" height="5.4"/><rect class="cls-7" x="276.29" y="219.25" width="0.47" height="5.4"/><rect class="cls-7" x="269.6" y="219.25" width="0.47" height="5.4"/><rect class="cls-7" x="262.91" y="219.25" width="0.47" height="5.4"/><rect class="cls-7" x="253.6" y="263.67" width="0.47" height="23.42"/><rect class="cls-7" x="259.37" y="263.67" width="0.47" height="23.42"/><rect class="cls-7" x="253.83" y="265.39" width="5.77" height="0.33"/><rect class="cls-7" x="253.83" y="267.39" width="5.77" height="0.33"/><rect class="cls-7" x="253.83" y="269.4" width="5.77" height="0.33"/><rect class="cls-7" x="253.83" y="271.4" width="5.77" height="0.33"/><rect class="cls-7" x="253.83" y="273.41" width="5.77" height="0.33"/><rect class="cls-7" x="253.83" y="275.42" width="5.77" height="0.33"/><rect class="cls-7" x="253.83" y="277.42" width="5.77" height="0.33"/><rect class="cls-7" x="253.83" y="279.43" width="5.77" height="0.33"/><rect class="cls-7" x="253.83" y="281.43" width="5.77" height="0.33"/><rect class="cls-7" x="253.83" y="283.44" width="5.77" height="0.33"/><rect class="cls-7" x="253.83" y="285.44" width="5.77" height="0.33"/><rect class="cls-7" x="284.46" y="290.51" width="0.47" height="27.34"/><rect class="cls-7" x="290.23" y="290.51" width="0.47" height="27.34"/><rect class="cls-7" x="284.7" y="292.52" width="5.77" height="0.38"/><rect class="cls-7" x="284.7" y="294.86" width="5.77" height="0.38"/><rect class="cls-7" x="284.7" y="297.2" width="5.77" height="0.38"/><rect class="cls-7" x="284.7" y="299.54" width="5.77" height="0.38"/><rect class="cls-7" x="284.7" y="301.88" width="5.77" height="0.38"/><rect class="cls-7" x="284.7" y="304.22" width="5.77" height="0.38"/><rect class="cls-7" x="284.7" y="306.57" width="5.77" height="0.38"/><rect class="cls-7" x="284.7" y="308.91" width="5.77" height="0.38"/><rect class="cls-7" x="284.7" y="311.25" width="5.77" height="0.38"/><rect class="cls-7" x="284.7" y="313.59" width="5.77" height="0.38"/><rect class="cls-7" x="284.7" y="315.93" width="5.77" height="0.38"/><rect class="cls-7" x="254.07" y="320.22" width="0.47" height="35.43"/><rect class="cls-7" x="259.84" y="320.22" width="0.47" height="35.43"/><rect class="cls-7" x="254.3" y="322.82" width="5.77" height="0.5"/><rect class="cls-7" x="254.3" y="325.86" width="5.77" height="0.49"/><rect class="cls-7" x="254.3" y="328.89" width="5.77" height="0.49"/><rect class="cls-7" x="254.3" y="331.92" width="5.77" height="0.5"/><rect class="cls-7" x="254.3" y="334.96" width="5.77" height="0.5"/><rect class="cls-7" x="254.3" y="337.99" width="5.77" height="0.49"/><rect class="cls-7" x="254.3" y="341.03" width="5.77" height="0.5"/><rect class="cls-7" x="254.3" y="344.06" width="5.77" height="0.5"/><rect class="cls-7" x="254.3" y="347.1" width="5.77" height="0.49"/><rect class="cls-7" x="254.3" y="350.13" width="5.77" height="0.49"/><rect class="cls-7" x="254.3" y="353.17" width="5.77" height="0.49"/><rect class="cls-7" x="276.76" y="227.6" width="0.47" height="32.63"/><rect class="cls-7" x="282.54" y="227.6" width="0.47" height="32.63"/><rect class="cls-7" x="277" y="230" width="5.77" height="0.46"/><rect class="cls-7" x="277" y="232.79" width="5.77" height="0.46"/><rect class="cls-7" x="277" y="235.59" width="5.77" height="0.46"/><rect class="cls-7" x="277" y="238.38" width="5.77" height="0.46"/><rect class="cls-7" x="277" y="241.18" width="5.77" height="0.46"/><rect class="cls-7" x="277" y="243.97" width="5.77" height="0.46"/><rect class="cls-7" x="277" y="246.77" width="5.77" height="0.46"/><rect class="cls-7" x="277" y="249.56" width="5.77" height="0.46"/><rect class="cls-7" x="277" y="252.36" width="5.77" height="0.45"/><rect class="cls-7" x="277" y="255.15" width="5.77" height="0.46"/><rect class="cls-7" x="277" y="257.94" width="5.77" height="0.46"/><rect class="cls-7" x="264.67" y="185.06" width="0.47" height="39.31"/><rect class="cls-7" x="270.44" y="185.06" width="0.47" height="39.31"/><rect class="cls-7" x="264.9" y="187.95" width="5.77" height="0.55"/><rect class="cls-7" x="264.9" y="191.31" width="5.77" height="0.55"/><rect class="cls-7" x="264.9" y="194.68" width="5.77" height="0.55"/><rect class="cls-7" x="264.9" y="198.05" width="5.77" height="0.55"/><rect class="cls-7" x="264.9" y="201.41" width="5.77" height="0.55"/><rect class="cls-7" x="264.9" y="204.78" width="5.77" height="0.55"/><rect class="cls-7" x="264.9" y="208.15" width="5.77" height="0.55"/><rect class="cls-7" x="264.9" y="211.51" width="5.77" height="0.55"/><rect class="cls-7" x="264.9" y="214.88" width="5.77" height="0.55"/><rect class="cls-7" x="264.9" y="218.25" width="5.77" height="0.55"/><rect class="cls-7" x="264.9" y="221.61" width="5.77" height="0.55"/><polygon class="cls-7" points="271.59 171.23 270.88 170.54 259.32 182.54 260.13 183.05 271.59 171.23"/><polygon class="cls-7" points="270.44 171.23 271.14 170.54 282.83 182.62 281.9 183.05 270.44 171.23"/><rect class="cls-7" x="270.8" y="151.51" width="0.73" height="31.29"/><rect class="cls-7" x="270.44" y="185.06" width="1.47" height="172.46"/><path class="cls-7" d="M273.32,236.76a2.14,2.14,0,0,1-2.15,2.14h0a2.14,2.14,0,0,1-2.14-2.14v-4.55a2.14,2.14,0,0,1,2.14-2.15h0a2.15,2.15,0,0,1,2.15,2.15Z"/><path class="cls-7" d="M273.9,243.13a2.73,2.73,0,0,1-2.73,2.73h0a2.72,2.72,0,0,1-2.72-2.73v-5.79a2.72,2.72,0,0,1,2.72-2.72h0a2.72,2.72,0,0,1,2.73,2.72Z"/><rect class="cls-7" x="269.36" y="169.78" width="3.58" height="2.34"/><rect class="cls-7" x="264.07" y="177.03" width="14.17" height="0.74"/><polygon class="cls-7" points="276.67 177.4 277.98 182.81 278.64 182.81 277.27 177.4 276.67 177.4"/><polygon class="cls-7" points="265.29 177.4 263.98 182.81 263.32 182.81 264.7 177.4 265.29 177.4"/><path class="cls-7" d="M368.27,328.3v10.62c0,6.56-4.33,11.9-9.65,11.9h-7.05c-5.32,0-9.65-5.34-9.65-11.9V277.6c0-10-7.15-18.16-15.93-18.16h-7.05c-8.78,0-15.93,8.15-15.93,18.16v58.83c0,9.09,5.9,16.64,13.56,17.95l0-.21a2.68,2.68,0,0,1,.89-4.58l.1,0,.33-1.31c-4.84-.63-8.63-5.69-8.63-11.82V277.6c0-6.56,4.33-11.89,9.65-11.89H326c5.32,0,9.65,5.33,9.65,11.89v61.32c0,10,7.15,18.16,15.93,18.16h7.05c8.78,0,15.93-8.14,15.93-18.16V328.3Z"/><path class="cls-7" d="M299.85,233.08a1,1,0,0,1-.85,1.12H288.37a1,1,0,0,1-.85-1.12v-14a1,1,0,0,1,.85-1.12H299a1,1,0,0,1,.85,1.12Z"/><path class="cls-7" d="M256.56,357.49V222.74c0-8.51-8.6-15.41-19.2-15.41H221.14c-10.6,0-19.2,6.9-19.2,15.41V357.49Z"/><path class="cls-7" d="M235.41,212.35a1,1,0,0,1-.85,1.12H223.94a1,1,0,0,1-.85-1.12v-14a1,1,0,0,1,.85-1.12h10.62a1,1,0,0,1,.85,1.12Z"/><path class="cls-7" d="M321,357.46V242.58C321,234,312.4,227,301.79,227H285.58c-10.61,0-19.21,7-19.21,15.54V357.46Z"/><path class="cls-8" d="M299.85,233.08c0,.62-.19,1.12-.43,1.12h-5.31c-.24,0-.43-.5-.43-1.12v-14c0-.62.19-1.12.43-1.12h5.31c.24,0,.43.5.43,1.12Z"/><path class="cls-8" d="M321,357.46V242.58C321,234,315.27,227,308.2,227H297.39c-7.06,0-12.79,7-12.79,15.54V357.46Z"/><path class="cls-3" d="M225.62,60.2A39.93,39.93,0,1,1,185.7,20.27,39.92,39.92,0,0,1,225.62,60.2Z"/><path class="cls-3" d="M209.59,60.2A23.9,23.9,0,1,1,185.7,36.3,23.89,23.89,0,0,1,209.59,60.2Z"/><circle class="cls-12" cx="185.7" cy="60.2" r="11.95"/><path class="cls-5" d="M377.29,63.11c0-3-2.29-5.58-5.6-6.78a5.67,5.67,0,0,0,2.15-4.3c0-3.56-3.77-6.45-8.43-6.45S357,48.47,357,52a5.1,5.1,0,0,0,.31,1.74C353.58,55,351,57.85,351,61.14c0,3,2.18,5.65,5.4,7-2.26.89-3.81,2.69-3.81,4.77a4.88,4.88,0,0,0,2.23,3.92,5.71,5.71,0,0,0-2.23,4.36,5.63,5.63,0,0,0,2.12,4.26,5.77,5.77,0,0,0-2.12,4.32,5.3,5.3,0,0,0,.63,2.47c-2.87,1-4.88,3.13-4.88,5.68,0,3,2.88,5.57,6.67,6.09,0,.12,0,.24,0,.36a3.56,3.56,0,0,0,.65,2,4.59,4.59,0,0,0,.1,4.87,4,4,0,0,0-3.14,3.57,2.82,2.82,0,0,0,.08.65,3.11,3.11,0,0,0,.06,5.54,2.46,2.46,0,0,0-.14.81,2.86,2.86,0,0,0,.84,2,1.7,1.7,0,0,0-.84,1.39,2.49,2.49,0,0,0,4.79,0v0c2.24-.15,4-1.58,4-3.33a3,3,0,0,0-1.24-2.33,2.8,2.8,0,0,0,.31-1.27c0-.06,0-.12,0-.18a3.75,3.75,0,0,0,2.27-3.22,1.23,1.23,0,0,0,0-.2h0c4.25,0,7.7-2.64,7.7-5.89,0-2.25-1.66-4.21-4.09-5.2a4.55,4.55,0,0,0-2.6-2.86,5,5,0,0,0,.85-2.75,4.78,4.78,0,0,0-.42-2c3.33-.92,5.7-3.35,5.7-6.2a5.82,5.82,0,0,0-2.3-4.48,5.6,5.6,0,0,0,1.92-4.1,6.28,6.28,0,0,0-3.86-5.42,4.48,4.48,0,0,0,1.08-2.86,4.37,4.37,0,0,0-.75-2.42,11.21,11.21,0,0,0,1.55.1C372.89,70.62,377.29,67.26,377.29,63.11Z"/><path class="cls-5" d="M425.74,23c0-3.72-2.85-6.94-7-8.44a7.08,7.08,0,0,0,2.67-5.36c0-4.43-4.7-8-10.5-8s-10.52,3.6-10.52,8a6.36,6.36,0,0,0,.39,2.17c-4.61,1.56-7.83,5.08-7.83,9.18,0,3.76,2.71,7,6.72,8.76-2.81,1.11-4.73,3.35-4.73,5.94a6.07,6.07,0,0,0,2.76,4.88A7.12,7.12,0,0,0,395,45.55a7,7,0,0,0,2.63,5.31A7.17,7.17,0,0,0,395,56.24a6.54,6.54,0,0,0,.78,3.07c-3.58,1.19-6.08,3.91-6.08,7.08,0,3.79,3.58,6.94,8.3,7.58,0,.15,0,.3,0,.45a4.45,4.45,0,0,0,.8,2.5,5.78,5.78,0,0,0,.13,6.08c-2.29.72-3.9,2.43-3.9,4.44a3.59,3.59,0,0,0,.09.81A4.15,4.15,0,0,0,393,91.67a4.2,4.2,0,0,0,2.15,3.48,3.39,3.39,0,0,0-.16,1,3.49,3.49,0,0,0,1,2.44,2.1,2.1,0,0,0-1,1.73c0,1.26,1.33,2.27,3,2.27s3-1,3-2.27v0c2.78-.19,5-2,5-4.15a3.72,3.72,0,0,0-1.54-2.9,3.62,3.62,0,0,0,.39-1.59,1.64,1.64,0,0,0,0-.22,4.65,4.65,0,0,0,2.83-4,2,2,0,0,0,0-.25h0c5.3,0,9.59-3.28,9.59-7.33,0-2.81-2.06-5.24-5.09-6.48a5.75,5.75,0,0,0-3.24-3.57,6.23,6.23,0,0,0,1.05-3.42,6.08,6.08,0,0,0-.51-2.43c4.14-1.14,7.1-4.17,7.1-7.72a7.25,7.25,0,0,0-2.87-5.58,7,7,0,0,0,2.4-5.11c0-2.83-1.92-5.31-4.82-6.74a5.6,5.6,0,0,0,1.35-3.57,5.41,5.41,0,0,0-.94-3,15.43,15.43,0,0,0,1.94.12C420.26,32.35,425.74,28.16,425.74,23Z"/><rect class="cls-7" x="356.85" y="301.88" width="51.51" height="55.97"/><path class="cls-13" d="M317.43,357s-14.86,0-5.36,3.73,71.05-1.25,69.26,3-41.26,4-46.76,4.5c-34.75,3.34,22.72,10.75,92.43,8.5s69.39.54,73,1.62c10.48,3.13-22.92,4.13-42.17,11.13s49.36,11.15,63.69,10.15,59.31.45,59.31-10.65c0-4.4-21.42-4.17-34-9-7.19-2.76-4.54-6.43,8.71-8,25.29-3,21-9.75,9.19-10.25-10.21-.43,11.68-4,12.93-4.22S317.43,357,317.43,357Z"/><polygon class="cls-14" points="246.54 259.68 241.4 259.14 242.98 248.87 247.58 249.42 249.56 239.93 249.91 239.97 246.54 259.68"/><path class="cls-14" d="M216.64,390.4s-.74.37-.75.61a27.39,27.39,0,0,0-.19,4.1c.19.57,10.22,1.68,10.22,1.68s5.07-.25,5.6-.9.3-1.15,0-1.23-12-4.54-12-4.54Z"/><path class="cls-14" d="M204.75,392.9a5.13,5.13,0,0,1,1.65-.47,6.38,6.38,0,0,1,1.69.69s-2-1.15,1.41-.05c0,0,9.43,6.08,9.31,6.43s-2.25,1.43-8.06.32c0,0-5.17-1.86-6.09-2.74C204.52,397,204,393.36,204.75,392.9Z"/><path class="cls-15" d="M205.24,388.12s-.12,5-.09,5.14c.23.76,2.4.81,3,.23l1.26-4.86Z"/><path class="cls-15" d="M216.42,386.22s-.08,5,0,5.14c.22.77,2.3.91,2.94.33l.94-5Z"/><path class="cls-14" d="M229.64,296.38s-1.41,36.07-3.16,53.1c0,0-9.16-1.49-10.08-5.41s.82-45.94.82-45.94Z"/><path class="cls-16" d="M215.59,297.62c.13,1.85,13.49-.83,13.61,1.05.46,7.07-10.83,26.81-10.81,27.07-4.39,30.45-5.93,60.92-7.56,67.33-.67,2.66-6.92.81-6.92.81-1-34.61-1.35-93.4-1.35-93.4C206,298.21,210.93,297.57,215.59,297.62Z"/><path class="cls-14" d="M219.17,342s-2.42-.41-2.78.9-1.81,39.9-1.81,49.12c0,0,6.44,1.06,7.56-.63,1.73-2.61,4.34-41.94,4.34-41.94Z"/><path class="cls-17" d="M223.58,259.89s-4.38-5.17-6.32-.93c-7.69,16.77,0,34.83,32.09,42.73,0,0,4.47,1.64,3.53-2.12S236.18,284,236.18,284A50.5,50.5,0,0,0,223.58,259.89Z"/><path class="cls-16" d="M220.92,253.94a14.2,14.2,0,0,0-6.15-.89c-1.9.18-4.56.4-6.2,2.16-4,5.07-4.29,8-4.29,8-3.69,9-2.53,29-1.72,37.3,0,0,23,13.95,27.07-3.32l.07-9.23c1.39-7.73,4.64-16,.37-25C230.07,262.89,226,254.67,220.92,253.94Z"/><path class="cls-12" d="M213.58,253.61s6.32,3.65,8.5,7.49,4.58,13.12,6.3,11.33-1.19-14.53-5.3-17.24a12.67,12.67,0,0,0-8.35-2Z"/><path class="cls-12" d="M220.14,268.58c0,7.39-3.46,13.38-7.73,13.38s-7.73-6-7.73-13.38,3.46-13.37,7.73-13.37S220.14,261.2,220.14,268.58Z"/><path class="cls-18" d="M216,245.39s-.45,6.3-2.44,8.22c-.54.53,6.94,2.89,9.33,1.83.52-.24,1.42-6.62,1.42-6.62Z"/><path class="cls-15" d="M222.57,231.72s7.88-.6,10.48,5.55a24.29,24.29,0,0,1-4.79,13c-1.57,2.17-2.47,3.16-5,2.55,0,0-9-2.34-7.68-8.77C216.77,238.25,220,232.24,222.57,231.72Z"/><path class="cls-16" d="M229.7,239.83s1.89.88,1.28,1.91c0,0,3.85.18,4.2-2.77s-3.06-.46-3.43-.4A13.4,13.4,0,0,0,229.7,239.83Z"/><path class="cls-16" d="M218.09,244.12s-.73-2.35,6.16-2.57c5.93-.18,8.17-3.1,9-3.41,1.92-.76-2.53-3.72-2.53-3.72s1.32-1.68-2.73-3.63c-1.26-.61-11.5-3.07-15.23,5.43-2.52,5.75,2,12.75,2.69,14.19S218.09,244.12,218.09,244.12Z"/><path class="cls-14" d="M232.71,241.77a15.53,15.53,0,0,0-1.73.84,2.81,2.81,0,0,1-1.28.19,23.29,23.29,0,0,0-7.83-1.52l-8.31-.25s-.23,1.37-.31,1.8,1.25-.9,1.25-.9l6.26.42s-.75,4.8,3.57,5.33,5.65-2.29,5.65-2.29l.81-.23s.06,2,.47,2.23S233.14,243.64,232.71,241.77Z"/><path class="cls-15" d="M219.29,243.92c-.16,1.85-1.14,3.28-2.19,3.2s-1.78-1.67-1.63-3.53,1.14-3.28,2.19-3.2c.75.07,1.33.88,1.55,2A5.78,5.78,0,0,1,219.29,243.92Z"/><path class="cls-18" d="M252.4,296.22a11.69,11.69,0,0,0,.49-2.89c-.11-.76-.62-.82-.62-.82l-2.48,3.35-.56,2,3.13-.63Z"/><path class="cls-18" d="M250.4,296.12l-1.2,1.51s.27,3.18,1.38,4.29,7.7-1,8.06-1.16,3.15-2,3.15-2l-.94-1.07-3.29-1.42a25.33,25.33,0,0,1-3.64.19,16,16,0,0,0-2.69-.38Z"/><path class="cls-12" d="M212.8,255.22s11.42.28,20.77,12.91c0,0,5.11-.91,11.38-10.44,0,0,4.94-3.11,5.19,2,.76,15.58-9,20.36-11.36,20.73-11.81,1.86-30.49-9.4-29.54-13Z"/><path class="cls-15" d="M249.25,250.94l.39.18c.22.11.87.87,1.08,1,.62,1.56,1.08,6-.29,8.82a8.92,8.92,0,0,1-6.55-2.71s-1.87-2.52-.65-4.77c.21-.38-.51-.74.12-1.53C245.43,250,246.94,250.62,249.25,250.94Z"/><path class="cls-16" d="M213.08,243.75l2.75,6.73s-1,3.68-5.62,2.36c0,0,2.8-2.33,2.81-5.08S213.08,243.75,213.08,243.75Z"/><path class="cls-12" d="M229.22,296.11s-7.2.42-11.46,1l.83,3.79s10.62-2.11,10.83-2.91A3.6,3.6,0,0,0,229.22,296.11Z"/><path class="cls-12" d="M217.76,311.36s-7.69,9.71-10.42,11.43l1.21,1.08s9.34-8.45,9.91-11.69Z"/><path class="cls-12" d="M231.46,240.05s-12.3,2.56-19.81-.58c0,0-2.83-12.45,10.56-12.95,0,0,10.62-.34,11.59,9.83,0,0,5.37.57,5.72,1.38S235.8,239.69,231.46,240.05Z"/><path class="cls-17" d="M232.71,236.74s-1.69,1.52-7.14,2.6c0,0-2.29-12.67-9.51-11.41a4.58,4.58,0,0,1,2.28-1.45c.79-.18,5.4-1.3,7.82.14S231.26,231.72,232.71,236.74Z"/><path class="cls-14" d="M348.61,385.29a11.12,11.12,0,0,1,3.8,5c3.38,8.75-8.25,5.33-12,2.15-1.51-1.3-2.17-9.79,1.33-10.61C343.16,381.49,348.61,385.29,348.61,385.29Z"/><path class="cls-15" d="M352.67,275.35a66.32,66.32,0,0,1-8.15,17.09s-3,5.69,1.52,4.77,14.35-12.74,15.4-17.21S358.07,265.4,352.67,275.35Z"/><path class="cls-14" d="M329.62,384.29s.86.35.89.62a30.22,30.22,0,0,1,.54,4.56c-.16.66-10.19,2.89-10.19,2.89s-7.18,1-10.9-.77c-.85-.41-.35-1.12-.1-1.37,5-4.78,13.8-7.3,13.8-7.3Z"/><path class="cls-15" d="M342.17,380.84s.54,5.62.52,5.72c-.21.87-2.62,1.1-3.39.5l-1.79-5.31Z"/><path class="cls-15" d="M329.54,379.6s.49,5.59.46,5.74c-.2.87-2.51,1.2-3.27.59l-1.44-5.55Z"/><path class="cls-14" d="M308.63,294.64c.66,13.82,1.91,34.17,3.95,45.85,0,0,12.92-3.51,13.64-8,.47-2.89-1.6-23.7-3.11-37.89Z"/><path class="cls-16" d="M313.21,294.64c3.89,8.45,9.33,17.39,9.33,17.57,7.32,33.66,13.64,68.58,16,75.61,1,2.93,11.68-1.58,11.68-1.58-1.05-24.33-4.43-24.49-10.86-91.6Z"/><path class="cls-19" d="M330.37,306.55s2.32,22.62,5.16,21.2c.43-.22,13.16-.65,13.37-1s-3.12-16.91-4.43-18.87Z"/><path class="cls-19" d="M333,302.16c0,.43,3.63,30,3.63,30h3.05l-4.14-30Z"/><polygon class="cls-12" points="332.65 311.7 334.75 319.67 346.13 317.18 343.31 308.77 332.65 311.7"/><path class="cls-19" d="M318.33,299.51s-2.13,20.87-4.75,19.56c-.41-.2-12.15-.6-12.34-.94s2.87-15.61,4.09-17.42Z"/><path class="cls-19" d="M316.83,309.32s-2.13,20.87-4.75,19.56c-.41-.2-10.35-1.11-10.54-1.45s2.75-15,4-16.8Z"/><path class="cls-14" d="M323,330.46s2.66-.64,3.17.79,3.9,45,4.63,55.27c0,0-10.39,1.52-11.77-.28-2.14-2.76-6.42-45.75-6.42-45.75Z"/><path class="cls-12" d="M333.05,248.79s10.61.81,27.54,23.94c0,0,1.7,2.4-5.55,4.32-4.41,1.17-9.87-5.28-22.13-16.33C332.91,260.72,329.63,248.15,333.05,248.79Z"/><path class="cls-16" d="M315.09,228.84a11.61,11.61,0,0,0,1.14,5.16l1.6-5.63C316.93,228.57,316,228.72,315.09,228.84Z"/><path class="cls-12" d="M340.34,252.08s-13.72-5.48-15.9-5.65l-14.66,5s-1.73,37.61-1.56,41c4,.34,12.64,2.82,16.75,2.9a36.18,36.18,0,0,0,10.47-1.67C336.75,289,341.67,260,340.34,252.08Z"/><path class="cls-17" d="M310.79,250.3s-10,4.49-17.85,32.07c0,0,7.75,3.84,10.21,0s5.17-8.1,12.82-22.73C316,259.64,313.77,248.5,310.79,250.3Z"/><path class="cls-12" d="M309.78,292.89l28.88-1.68s-1.1,6.32-1.31,6.41-12.41,2.8-12.41,2.8l-12.4-2.05Z"/><polygon class="cls-20" points="317.82 248.17 310.21 250.1 305.03 313.05 321.59 316.22 317.82 248.17"/><polygon class="cls-20" points="331.94 247.87 341.25 252.01 345.12 313.05 328.56 316.22 331.94 247.87"/><polygon class="cls-12" points="306.93 280.94 306.52 287.47 319.32 287.47 318.83 280.94 306.93 280.94"/><polygon class="cls-12" points="320.22 302.72 319.59 294.3 305.86 294.3 305.32 302.72 320.22 302.72"/><polygon class="cls-12" points="331.75 280.94 331.26 287.47 344.06 287.47 343.65 280.94 331.75 280.94"/><polygon class="cls-12" points="345.12 302.72 344.58 294.3 330.84 294.3 330.21 302.72 345.12 302.72"/><path class="cls-18" d="M329.37,241.21c.1-.27-8.7.31-8.7.31s.63,5.6-.15,7.34L325,256.4s3.48-6.39,4.24-7.81A11.66,11.66,0,0,1,329.37,241.21Z"/><path class="cls-15" d="M318.58,242.93s3.62,5.55,9.74,1.46c4.65-3.11,8.67-19,6.14-21.91S320.17,219,317.24,225C315,229.59,316,239,318.58,242.93Z"/><path class="cls-16" d="M319.64,229.82s3.08,4.12,10.61,4.75c0,0-4.14-5.58-5.3-6.11S319.64,229.82,319.64,229.82Z"/><path class="cls-16" d="M316.46,227.77s.92,5,7.38,9c0,0-1.22-6.84-2-7.83S316.46,227.77,316.46,227.77Z"/><path class="cls-16" d="M328.84,227s-.41-6.19,3.7-5.18c0,0,6.77,6.85,2.37,14.41-2.41,4.12-6.17,10.22-6.17,10.22l.1-3S332.39,229.62,328.84,227Z"/><path class="cls-15" d="M328.8,237.68c-.65,1.41-.42,2.91.52,3.34s2.23-.36,2.88-1.78.42-2.91-.52-3.34S329.45,236.26,328.8,237.68Z"/><path class="cls-15" d="M343.4,294.63s-1.15,1.35-3.51-1.21-1.4-3.08,5.49-.43Z"/><path class="cls-15" d="M343.21,292.16s-.9-.51-3.32,1.26a12.89,12.89,0,0,0-4.06,5.05c-.64,1.19.28.77.35.8s-.17.06,0,.35a1.84,1.84,0,0,0,.93.49l1.16.15c1.4.2,4,.25,8.58-3.32C346.89,296.94,347.21,292.42,343.21,292.16Z"/><path class="cls-12" d="M318.63,231.09s11.38.75,17.49-2.57c0,0,.63-10.5-10.81-9.75,0,0-9.06.65-9,9.39,0,0-4.52,1-4.75,1.67S314.91,231.17,318.63,231.09Z"/><path class="cls-17" d="M317.28,228.39s1.57,1.15,6.31,1.58c0,0,.82-11,7.08-10.53a3.92,3.92,0,0,0-2.07-1c-.69-.08-4.71-.63-6.63.81S318.07,224,317.28,228.39Z"/><path class="cls-12" d="M350.56,274.35s-1.45,1.79-1,2.91.81,3.77,8.31,3.05,6.78-6.39,2-8.09S350.56,274.35,350.56,274.35Z"/><path class="cls-12" d="M328.67,245.27A9.07,9.07,0,0,0,329,248c.34.69-4.06,8.44-4.06,8.44l9.36-9.49Z"/><path class="cls-12" d="M321.11,245.27a9.07,9.07,0,0,1-.34,2.69c-.34.69,4.07,8.44,4.07,8.44l-9.37-9.49Z"/><path class="cls-18" d="M306.8,303.08a68.3,68.3,0,0,1-3.65-20.8,10.5,10.5,0,0,1-6.55,2.3,17.1,17.1,0,0,1-3.22-.2c.84,6.05,6.37,18.57,9.83,20.75C307.14,307.6,306.8,303.08,306.8,303.08Z"/><path class="cls-18" d="M306.72,305.58s-1.49,1,.75,3.64,2.88,1.78,1.13-5.4Z"/><path class="cls-18" d="M307.79,302.42s1,.33,1.28,3.31a12.85,12.85,0,0,1-1.05,6.39c-.45,1.28-.76.31-.83.27s.07.17-.28.21a1.85,1.85,0,0,1-1-.36l-.9-.76c-1.08-.91-3.14-2.59-3.52-8.36C301.51,303.12,304.91,299.61,307.79,302.42Z"/><path class="cls-17" d="M292.31,280.87s-1.68,1.57-1.41,2.73.28,3.86,7.81,4.17,7.59-5.4,3.08-7.74S292.31,280.87,292.31,280.87Z"/><path class="cls-16" d="M402.05,216.2s1.76,1.67-.23,3.89-1.88,1.89-1.75,2.77-.56,2.08.64,1.8,2.91-1.34,2.82-2.54a3.63,3.63,0,0,1,1.29-2.91c.7-.56,3-2.17,2.36-3.77s-.83-2.8.65-3.63,1.42-4.46-1.21-7.51-5.67-1-6.55-3.12-3.68-4.68-6.59-3.58c-5,1.92-4.21,3.59-4.2,4.64s-.31,2.21-1,2.3-3.45,2.6-2,4.64.66,2.6.48,3.34-1.62.76.41,2.57C393.34,220.59,388.87,203.72,402.05,216.2Z"/><path class="cls-19" d="M387.45,226.47s-12.43-1.54-18.32,1.68c0,0,.49-4.51,10.33-13.48,0,0,.26-4.48-4.36-3.09S352.58,226.4,358.8,235c2.92,4,25.09,5.71,26.24,2.4Z"/><path class="cls-18" d="M379,215.24a23.3,23.3,0,0,0,3.09-2.92,24.44,24.44,0,0,0,2.83-3.56c.69-1-.47-.65-.54-.66s.15-.08-.12-.31a2.06,2.06,0,0,0-1-.29l-1.13,0c-1.37,0-3.93.08-7.23,4C374.89,211.53,375.87,215.7,379,215.24Z"/><path class="cls-20" d="M385.19,208s3.5-10.31,1.95-16.77c0,0-9.53-3.18-11.66,7.56,0,0-1.66,8.52,6.42,10.62,0,0-.24,4.4.37,4.79S384.33,211.43,385.19,208Z"/><path class="cls-19" d="M382.35,208.54a14.76,14.76,0,0,1,1.4-1.86s-8.74-6.38-6.79-12a3.22,3.22,0,0,0-1.07.78c-.43.5-1.69,4.4-.84,6.53S378.5,206.73,382.35,208.54Z"/><path class="cls-18" d="M378.62,215.44a6.62,6.62,0,0,0,4.84-2.77c1.65-2.58-.7-1.42-6.62,1.79Z"/><path class="cls-14" d="M380.2,262.4s-4.34,37.81-5.09,55.74c0,0,12.08.49,14-3.34s7.05-47.53,7.05-47.53Z"/><path class="cls-14" d="M402.13,354.7s.86.07,1,.3a28.64,28.64,0,0,1,1.8,3.89c0,.63-8.29,5.42-8.29,5.42s-6,2-6.74,1.54-.26-2.4,0-2.6S398,354.7,398,354.7Z"/><path class="cls-14" d="M407.36,365.91s4.19-.16,4.2.09a27.52,27.52,0,0,1,.29,4.28c-.19.6-10.8,2.48-10.8,2.48s-8.57-.16-9.13-.84-.34-1.19,0-1.28S404,363.52,404,363.52Z"/><path class="cls-15" d="M407.09,361.05s.22,5.26.19,5.36c-.23.8-2.49.9-3.18.3l-1.41-5Z"/><path class="cls-15" d="M400.71,350.57s2,4.82,2.06,4.95c.08.83-1.88,1.79-2.73,1.47l-2.89-4.51Z"/><path class="cls-14" d="M381.59,307.71s4.35.65,5.27,1.77,14.21,36.18,17.56,45.22c0,0-3.91,4-5.9,2.82-3.07-1.77-23.2-39.19-23.2-39.19Z"/><path class="cls-16" d="M394.53,266.65c-.09,1.93-14.11-.61-14.2,1.36-.34,7.4,11.84,27.82,11.82,28.08,5.17,31.75,8.23,64.52,10.05,71.2.76,2.77,9.3-.19,9.3-.19.35-36.2-1-94.6-1-94.6C406.89,270.18,399.4,266.51,394.53,266.65Z"/><path class="cls-20" d="M412.53,232.27l-2.85-4.79s-11.58-2.84-13.67-3c0,0-8.39,1.89-8.56,2l-.95.44-4.33,3.46s-1.53,34.55-1.36,37.75c3.87.32,12.08,2.69,16,2.77a34.52,34.52,0,0,0,10-1.6C408.06,264.82,413.81,239.85,412.53,232.27Z"/><path class="cls-19" d="M385.32,254.29c.43-1.61.8-3.23,1.13-4.87.08-3.3.39-6.55.79-9.8a25.88,25.88,0,0,0,0-4.74,23.38,23.38,0,0,1,.51-7.72c-.25-.38-.47-.74-.56-.69l-.94.44-4.34,3.46s-.73,16.57-1.12,27.82A31.1,31.1,0,0,1,385.32,254.29Z"/><path class="cls-16" d="M387.32,226.31l2.58-.44-2.45,17,13.24-.1,3-16.69,2.89.68L405,242.87l-.33,4.81,5.87,4.94V272.5s-19.6,8.65-30.76-4l1-18.13,2.68-2.45s.91-5.76.91-5.79S387.32,226.31,387.32,226.31Z"/><polygon class="cls-14" points="401.95 257.2 385.13 257.2 386.67 244.99 401.95 244.99 401.95 257.2"/><polygon class="cls-20" points="379.01 266.65 378.59 272.55 410.68 279.9 410.52 273.27 379.01 266.65"/><path class="cls-21" d="M407.46,275.19a.68.68,0,0,1-.68.69h0a.69.69,0,0,1-.68-.69V270a.68.68,0,0,1,.68-.68h0a.67.67,0,0,1,.68.68Z"/><path class="cls-21" d="M410.19,275.19a.68.68,0,0,1-.68.69h0a.68.68,0,0,1-.68-.69V270a.67.67,0,0,1,.68-.68h0a.67.67,0,0,1,.68.68Z"/><path class="cls-22" d="M414.11,273.64a.76.76,0,1,1-.76-.76A.76.76,0,0,1,414.11,273.64Z"/><path class="cls-22" d="M411.51,273.09s-.17-.72.51-.72.57,1.27.57,1.27h1.52s.26-1.77-.76-2.53a2,2,0,0,0-3.08,1.86C410.27,275.41,411.51,273.09,411.51,273.09Z"/><path class="cls-20" d="M401.91,273v8.31a4.88,4.88,0,1,0,9.75,0V273Z"/><path class="cls-19" d="M404.25,273h-2.34v8.31a4.85,4.85,0,0,0,2.34,4.15Z"/><path class="cls-23" d="M407.55,273v5.17a.68.68,0,0,0,1.36,0V273Z"/><rect class="cls-22" x="388.78" y="269.85" width="7.03" height="5.51" transform="translate(44.93 600.55) rotate(-78.15)"/><rect class="cls-24" x="386.28" y="270.81" width="7.33" height="2.5" transform="translate(43.58 597.79) rotate(-78.15)"/><rect class="cls-24" x="391.48" y="271.89" width="7.33" height="2.5" transform="translate(46.53 603.63) rotate(-78.13)"/><rect class="cls-22" x="376.69" y="267.28" width="7.03" height="5.51" transform="translate(37.84 586.69) rotate(-78.15)"/><rect class="cls-24" x="374.19" y="268.24" width="7.33" height="2.5" transform="translate(36.43 583.86) rotate(-78.13)"/><rect class="cls-24" x="379.39" y="269.33" width="7.33" height="2.5" transform="translate(39.49 589.81) rotate(-78.13)"/><path class="cls-15" d="M413.88,278.78a7.29,7.29,0,0,0-2.37,5.54c.2,3.38,1.29.87,3.85-5.71Z"/><path class="cls-20" d="M410.07,227.64s8.7,3.19,16,30.14c0,0-.18,12.66-2.51,8.9s-10.72-13-17.95-27.34C405.63,239.34,407.24,225.87,410.07,227.64Z"/><path class="cls-18" d="M400.24,221.14c-.1-.25-8.47,1.11-8.47,1.11a10.81,10.81,0,0,1-.41,5.83l4.29,1.27a15.82,15.82,0,0,0,5.94-2.07A15,15,0,0,0,400.24,221.14Z"/><path class="cls-15" d="M390.84,222.74s2.56,5.35,8.41,1.44c4.44-3,2.61-14.21.19-17s-5.67-5.37-9-.76C387.55,210.45,388.35,218.94,390.84,222.74Z"/><path class="cls-15" d="M400.43,216.32c-.63,1.36-.41,2.79.49,3.2s2.13-.35,2.75-1.7.4-2.79-.5-3.2S401.05,215,400.43,216.32Z"/><path class="cls-20" d="M417.21,258.16s1,7.8-3.6,21.43c0,0-.35,4.41,3.41,2s10.14-17.74,9.58-22.18S418.72,247.22,417.21,258.16Z"/><path class="cls-15" d="M413.6,279a19.66,19.66,0,0,0-1,4.76,30,30,0,0,0-.14,5c0,1.31.73.31.79.27s-.06.16.28.2a1.74,1.74,0,0,0,.94-.35l.85-.72c1-.88,3-2.5,3.3-8.1C418.65,280.09,415.76,276.69,413.6,279Z"/><path class="cls-16" d="M387.45,213.8s.87.46,1.1-.88.45-3.14,1.89-3.33a6.77,6.77,0,0,0,4.28-1.71c1.32-1.29,4.56.4,4.93,3s.41,4.17,3.6,4.07.09-.09,0-.32-4-11.88-4-11.88l-5.5-.51s-5.36,5-5.46,5.22S387.45,213.8,387.45,213.8Z"/><path class="cls-7" d="M488.54,82a4.57,4.57,0,0,1,1-1.94,2,2,0,0,1,1.32-.5,1,1,0,0,0,.1-.17,1.13,1.13,0,0,1-1,.1,1.94,1.94,0,0,0,.69-1.24v-.57a3.9,3.9,0,0,1-.26-1.42l-.08,0s-.45-2,1.12-2.81h0A1.12,1.12,0,0,1,492,73a3.11,3.11,0,0,1,1.91,0,1.7,1.7,0,0,1,.28.21,2.42,2.42,0,0,1,1.58,2.16s1.3.13,1.39.33-.43.32-1.1.45a.81.81,0,0,1-.64.49l0,.09.11,0c.1.46-.25,1.44-.35,1.37s-.09-.23-.11-.37a6.36,6.36,0,0,1-.62,1.07c-.36.5-.58.74-1.12.64a4.53,4.53,0,0,1-.11.46,5.53,5.53,0,0,1,1.67,2,5.38,5.38,0,0,1,.2.51,7.31,7.31,0,0,1,.65.77s1.09-.2,2.48-2.13l-.57-.06.38-2.5,1.12.13.48-2.3h.09L499.2,79l.29,0,.09,0c.06,0,.21.21.27.24a3.28,3.28,0,0,1-.08,2.15h-.06c0,3.54-2.21,4.65-2.77,4.74a4.64,4.64,0,0,1-.84,0c.08.28.15.56.21.83a37.25,37.25,0,0,1,3.35,2.84l.56-.77s.13,0,.15.21a1.52,1.52,0,0,1-.06.48l1.4-1.36a1.17,1.17,0,0,1,.61-1.45h0a.24.24,0,0,1,.23,0,.22.22,0,0,1,.07.31l-.05.06h0s-.61.47-.18,1a.72.72,0,0,0,1-.15h0a.1.1,0,0,1,.06,0,.21.21,0,0,1,.3.08.2.2,0,0,1,0,.22h0a1.18,1.18,0,0,1-1.57.53l-1.08,1,.38,0,.8.34.23.27s-.68.44-.77.47-1.58.52-1.92.31l-.09,0-2.23,2.18a.39.39,0,0,1-.55,0,.38.38,0,0,1,0-.54l1.9-1.85a16.48,16.48,0,0,1-4.17-1.71v.77a0,0,0,0,1,0,0c-.05,1.38-.37,9-.76,12.71,0,0-.6,9.14-1,10.15l2.25.85c.07,0,.13.14,0,.3a4.61,4.61,0,0,1-1.36.22,16.34,16.34,0,0,1-2.49-.41,3.62,3.62,0,0,1,0-.71l-.29,0c0-2.11.31-10.54.42-11.8,0-.07,0-.16,0-.26-.68,5.88-1,11-1.31,12.31a.35.35,0,0,1-.09.16,20.9,20.9,0,0,1,2,1.41c0,.09-.55.35-2,.08a9,9,0,0,1-1.49-.67,2.67,2.67,0,0,1-.07-.75l-.11,0c-.24-8.43-.33-22.73-.33-22.73C487.92,89,487.64,84.16,488.54,82Z"/><path class="cls-7" d="M444.87,329.44l.05.12c.16,3.85.57,15.67,0,26.17a2.35,2.35,0,0,0,0,.72c0,.07,0,.14,0,.21h0a2.37,2.37,0,0,0,.1.55,1.11,1.11,0,0,0,.16.12h4.45l-.71-.48c1.06.21,3.24.46,3.24.46a7.29,7.29,0,0,0,2.09-.34c.2-.24.11-.43,0-.46l-3.19-1.2c.48-2.1.94-12.39.94-12.39.43-4.23.84-12.44,1-15.1l.2-.69,0-.71c1.76.13,4.08-.42,7.05-1.94a8.82,8.82,0,0,0,2-.44c.11,0,.94-.59.94-.59l-.05-.05.8-.13,1.88-6.11s-6.7.44-6.68.49-.08.38-.21.92c0,0,0,.06,0,.1l-.09.35c0,.1-.05.21-.07.32a.94.94,0,0,0,0,.16c0,.11-.06.21-.08.32l0,.16c-.26,1.08-.56,2.29-.75,3-.4,0-.8.05-1.17.09l.07-.05s-.71-.71-.8-.76a11.29,11.29,0,0,0-1.55-.75,15,15,0,0,0-.7-1.68v-.06a.28.28,0,0,0,0-.09,5.12,5.12,0,0,0-2.66-5.11l0,0h0l-.06,0h0l0,0c.05-.18.11-.46.16-.74.61.1.87-.18,1.28-.75a7.34,7.34,0,0,0,1.05-2.07c.92.18,1.7.21,1.69,0s-1.31-.85-1.31-.85a2.64,2.64,0,0,0-.83-2.8,2,2,0,0,0-.22-.32,3.41,3.41,0,0,0-1.94-.74,1.27,1.27,0,0,0-.71.16h0c-1.91.27-2.18,2.49-2.18,2.49l0,0-.05.09a3.53,3.53,0,0,0,.09,2.62c0,.17,0,.39,0,.67a2.24,2.24,0,0,1-.8,1.44,1.38,1.38,0,0,0,1.12-.07,1.64,1.64,0,0,1-.18.35l-.35,0-.05,0-.33.1h0l-.21.07h0l-.15.06h0a1.52,1.52,0,0,0-.5.35,5.55,5.55,0,0,0-1.28,2.38c-.73,1.78-.44,5-.26,7.72l-.27-.12Zm3.65,20.67c-.1,2.55-.18,4.91-.18,5.95h0c0,.15,0,.29,0,.41l-.74-.49C447.83,355,448.14,352.9,448.52,350.11Z"/><path class="cls-7" d="M505.21,318.11l3.65-.75a2.86,2.86,0,0,0,.23.86h.08c-.05,4.2,2.62,5.51,3.28,5.61a5.34,5.34,0,0,0,1,.05q-.13.5-.24,1a37.79,37.79,0,0,0-4.37,3.79,6.9,6.9,0,0,0-2.15.41c-.1,0-.91.57-.91.57l.27.31.95.41a7.15,7.15,0,0,1,1.05-.06,1.46,1.46,0,0,0,.44.08h0a3.45,3.45,0,0,0-.14.83c0,.22.18.24.18.24l.71-1,.12-.45,0-.06a20.83,20.83,0,0,0,5.68-2.21v.68h0v.26c.07,1.57.43,10.09.87,14.66h0l0,.38s0,.57.06,1.47v.13h0c0,1,.1,2.34.17,3.75h0l.07,1h0c0,.33,0,.66.05,1h0l0,.25c.08,1.21.16,2.34.25,3.21-.72.1-1.28.25-1.23.51a2.91,2.91,0,0,0,.3,1.27l-1.37.52c-.09,0-.16.18,0,.39a.8.8,0,0,0,.38.13h2.62a14.18,14.18,0,0,0,2-.33h.09l-.48.32h3.61a3.77,3.77,0,0,0,0-.51l.06,0A.92.92,0,0,0,523,356h0v0a2.51,2.51,0,0,0,0-.54c0-1,0-2,.05-3.09h0v-.16c0-.17,0-.34,0-.52v-.32h0c0-.36,0-.72,0-1.08h0v-.05c0-1.86,0-3.79,0-5.68h0c0-.32,0-.64,0-1h0v-1.05h0c-.06-6.95-.21-12.94-.21-12.94.34-3.52.73-7.78-.5-10.75a5.29,5.29,0,0,0-1.23-2.3,2.46,2.46,0,0,0-1.56-.6,1.4,1.4,0,0,1-.18-.32,1.11,1.11,0,0,0,.54.1c-.53-.26-.43-1-.43-1s.44.13.44.13c-.42-.52,0-1.27,0-1.3h.07c.63,0,.92-.84.92-.84a.66.66,0,0,1-.63,0,2.63,2.63,0,0,0,.63-.45.9.9,0,0,1-.73-.22h0s.53-2.36-1.32-3.33h0a1.3,1.3,0,0,0-.66-.42,3.73,3.73,0,0,0-2.25,0,2.56,2.56,0,0,0-.34.26,2.85,2.85,0,0,0-1.87,2.55s-1.54.16-1.65.39.63.43,1.54.58a1.38,1.38,0,0,0,.26.94,1.26,1.26,0,0,1,.23-.51,7.13,7.13,0,0,0,.69,1.75.37.37,0,0,0-.14,0h0a1.47,1.47,0,0,0-1.67,1.25l-1.92.39a.25.25,0,0,0-.06-.26c-.6-.56-1-.38-1.7-.29l-.11.05c-.07,0-.25.26-.31.29a2.77,2.77,0,0,0-.15.69l-3.85.78a.5.5,0,0,0-.38.58A.5.5,0,0,0,505.21,318.11Zm5.77-.67a2,2,0,0,0,.26-.56l2.12-.44a1.48,1.48,0,0,0,1.95.39h0a.27.27,0,0,0,.16-.24.28.28,0,0,0-.27-.29.18.18,0,0,0-.1,0h0s-.92.3-1.17-.53.87-.95.87-.95h0l.1,0a.28.28,0,0,0,.16-.25c.12.2.25.41.4.62.43.59.69.87,1.33.75,0,.22.08.41.12.55a6.55,6.55,0,0,0-2,2.34,5.89,5.89,0,0,0-.24.58,10.57,10.57,0,0,0-.77.93s-1.38-.26-3.1-2.75Z"/><rect class="cls-25" width="592.76" height="425.2"/></svg>