<svg xmlns="http://www.w3.org/2000/svg" width="36.947" height="27" viewBox="0 0 36.947 27">
  <g id="mail" transform="translate(-3.375 -7.313)">
    <path id="Path_5" data-name="Path 5" d="M34.4,11.576a4.263,4.263,0,1,1-4.263-4.263A4.263,4.263,0,0,1,34.4,11.576Z" transform="translate(5.921 0)" fill="#374ea1"/>
    <g id="Group_8" data-name="Group 8" transform="translate(3.375 8.734)">
      <path id="Path_6" data-name="Path 6" d="M36.059,16.544a5.918,5.918,0,0,1-1.386-.169l-4.21,4.29a.172.172,0,0,0,0,.249l6.688,7.123a1.153,1.153,0,0,1,0,1.634,1.158,1.158,0,0,1-1.634,0l-6.661-7.1a.182.182,0,0,0-.258,0l-1.625,1.652a7.151,7.151,0,0,1-5.1,2.149,7.294,7.294,0,0,1-5.2-2.212l-1.563-1.59a.182.182,0,0,0-.258,0l-6.661,7.1a1.158,1.158,0,0,1-1.634,0,1.153,1.153,0,0,1,0-1.634l6.688-7.123a.189.189,0,0,0,0-.249L3.677,10.931a.175.175,0,0,0-.3.124V30.533a2.85,2.85,0,0,0,2.842,2.842H37.48a2.85,2.85,0,0,0,2.842-2.842V14.723A5.892,5.892,0,0,1,36.059,16.544Z" transform="translate(-3.375 -7.796)" fill="#374ea1"/>
      <path id="Path_7" data-name="Path 7" d="M29.929,11.28a5.9,5.9,0,0,1,.728-2.842H5.984a2.773,2.773,0,0,0-1.759.622L18.161,23.243a4.868,4.868,0,0,0,6.945,0l7.15-7.274A5.876,5.876,0,0,1,29.929,11.28Z" transform="translate(-3.151 -8.438)" fill="#374ea1"/>
    </g>
  </g>
</svg>
