<?xml version="1.0" encoding="utf-8"?>
<!-- Generator: Adobe Illustrator 25.3.0, SVG Export Plug-In . SVG Version: 6.00 Build 0)  -->
<svg version="1.1" id="Layer_1" xmlns="http://www.w3.org/2000/svg" xmlns:xlink="http://www.w3.org/1999/xlink" x="0px" y="0px"
	 viewBox="0 0 30 30" style="enable-background:new 0 0 30 30;" xml:space="preserve">
<style type="text/css">
	.st0{fill:#083862;}
</style>
<path class="st0" d="M28.7,16H9.3C8.6,16,8,15.4,8,14.7v0c0-0.7,0.6-1.3,1.3-1.3h19.4c0.7,0,1.3,0.6,1.3,1.3v0
	C30,15.4,29.4,16,28.7,16z"/>
<path class="st0" d="M24.6,8.3H5.2C4.5,8.3,3.9,7.7,3.9,7v0c0-0.7,0.6-1.3,1.3-1.3h19.4c0.7,0,1.3,0.6,1.3,1.3v0
	C25.9,7.7,25.3,8.3,24.6,8.3z"/>
<path class="st0" d="M24.6,24.3H5.2c-0.7,0-1.3-0.6-1.3-1.3v0c0-0.7,0.6-1.3,1.3-1.3h19.4c0.7,0,1.3,0.6,1.3,1.3v0
	C25.9,23.7,25.3,24.3,24.6,24.3z"/>
</svg>
