<svg xmlns="http://www.w3.org/2000/svg" width="35.634" height="22" viewBox="0 0 35.634 22">
  <g id="name" transform="translate(-10825.866 -997)">
    <rect id="Rectangle_157" data-name="Rectangle 157" width="35" height="22" transform="translate(10826.5 997)" fill="#fff" opacity="0"/>
    <path id="name-2" data-name="name" d="M10.733,12.075A6.038,6.038,0,1,0,4.7,6.038,6.039,6.039,0,0,0,10.733,12.075ZM16.1,13.417H13.79a7.3,7.3,0,0,1-6.113,0H5.367A5.366,5.366,0,0,0,0,18.783v.671a2.013,2.013,0,0,0,2.013,2.013H19.454a2.013,2.013,0,0,0,2.013-2.013v-.671A5.366,5.366,0,0,0,16.1,13.417Z" transform="translate(10825.866 997.267)" fill="#374ea1"/>
  </g>
</svg>
