<svg xmlns="http://www.w3.org/2000/svg" width="35" height="22" viewBox="0 0 35 22">
  <g id="zocial-email" transform="translate(-10834 -1060)">
    <rect id="Rectangle_157" data-name="Rectangle 157" width="35" height="22" transform="translate(10834 1060)" fill="#fff" opacity="0"/>
    <path id="zocial-email-2" data-name="zocial-email" d="M.072,19.745V5.591q0-.025.074-.467l8.33,7.126L.17,20.236a2.082,2.082,0,0,1-.1-.491Zm1.106-15.6A1.059,1.059,0,0,1,1.6,4.068H24.029a1.391,1.391,0,0,1,.442.074l-8.354,7.15-1.106.885L12.825,13.97l-2.187-1.794-1.106-.885ZM1.2,21.194l8.379-8.035,3.243,2.629,3.243-2.629,8.379,8.035a1.18,1.18,0,0,1-.418.074H1.6a1.113,1.113,0,0,1-.393-.074ZM17.174,12.25l8.305-7.126a1.467,1.467,0,0,1,.074.467V19.745a1.883,1.883,0,0,1-.074.491Z" transform="translate(10834.587 1058.332)" fill="#374ea1"/>
  </g>
</svg>
